<svg width="3272" height="2325" xmlns="http://www.w3.org/2000/svg" xmlns:xlink="http://www.w3.org/1999/xlink" overflow="hidden"><defs><clipPath id="clip0"><rect x="-65" y="-45" width="3272" height="2325"/></clipPath></defs><g clip-path="url(#clip0)" transform="translate(65 45)"><path d="M273 801C273 652.988 393.211 533 541.5 533 689.788 533 810 652.988 810 801 810 949.012 689.788 1069 541.5 1069 393.211 1069 273 949.012 273 801Z" fill="#FFFFFF" fill-rule="evenodd"/><path d="M1000 801C1000 652.988 1120.21 533 1268.5 533 1416.79 533 1537 652.988 1537 801 1537 949.012 1416.79 1069 1268.5 1069 1120.21 1069 1000 949.012 1000 801Z" fill="#FFFFFF" fill-rule="evenodd"/><path d="M273 1459C273 1310.99 393.211 1191 541.5 1191 689.788 1191 810 1310.99 810 1459 810 1607.01 689.788 1727 541.5 1727 393.211 1727 273 1607.01 273 1459Z" fill="#FFFFFF" fill-rule="evenodd"/><path d="M1000.5 1506.5C1000.5 1358.49 1120.71 1238.5 1269 1238.5 1417.29 1238.5 1537.5 1358.49 1537.5 1506.5 1537.5 1654.51 1417.29 1774.5 1269 1774.5 1120.71 1774.5 1000.5 1654.51 1000.5 1506.5Z" stroke="#FFFFFF" stroke-width="4.58333" stroke-miterlimit="8" fill="#FFFFFF" fill-rule="evenodd"/><path d="M1727 1506C1727 1357.99 1847.21 1238 1995.5 1238 2143.79 1238 2264 1357.99 2264 1506 2264 1654.01 2143.79 1774 1995.5 1774 1847.21 1774 1727 1654.01 1727 1506Z" fill="#FFFFFF" fill-rule="evenodd"/><path d="M1727 801C1727 652.988 1847.21 533 1995.5 533 2143.79 533 2264 652.988 2264 801 2264 949.012 2143.79 1069 1995.5 1069 1847.21 1069 1727 949.012 1727 801Z" fill="#FFFFFF" fill-rule="evenodd"/><path d="M746 1188.5C746 1122.5 799.502 1069 865.5 1069 931.498 1069 985 1122.5 985 1188.5 985 1254.5 931.498 1308 865.5 1308 799.502 1308 746 1254.5 746 1188.5Z" fill="#FFFFFF" fill-rule="evenodd"/><path d="M1473 1188.5C1473 1122.5 1526.5 1069 1592.5 1069 1658.5 1069 1712 1122.5 1712 1188.5 1712 1254.5 1658.5 1308 1592.5 1308 1526.5 1308 1473 1254.5 1473 1188.5Z" fill="#FFFFFF" fill-rule="evenodd"/><path d="M746 1846.5C746 1780.5 799.502 1727 865.5 1727 931.498 1727 985 1780.5 985 1846.5 985 1912.5 931.498 1966 865.5 1966 799.502 1966 746 1912.5 746 1846.5Z" fill="#FFFFFF" fill-rule="evenodd"/><path d="M1473 1893.5C1473 1827.5 1526.5 1774 1592.5 1774 1658.5 1774 1712 1827.5 1712 1893.5 1712 1959.5 1658.5 2013 1592.5 2013 1526.5 2013 1473 1959.5 1473 1893.5Z" fill="#FFFFFF" fill-rule="evenodd"/><path d="M2200 1893.5C2200 1827.5 2253.5 1774 2319.5 1774 2385.5 1774 2439 1827.5 2439 1893.5 2439 1959.5 2385.5 2013 2319.5 2013 2253.5 2013 2200 1959.5 2200 1893.5Z" fill="#FFFFFF" fill-rule="evenodd"/><path d="M2200.5 1189C2200.5 1123 2254 1069.5 2320 1069.5 2386 1069.5 2439.5 1123 2439.5 1189 2439.5 1255 2386 1308.5 2320 1308.5 2254 1308.5 2200.5 1255 2200.5 1189Z" stroke="#FFFFFF" stroke-width="4.58333" stroke-miterlimit="8" fill="#FFFFFF" fill-rule="evenodd"/><path d="M390 2102.5C390 2036.5 443.502 1983 509.5 1983 575.498 1983 629 2036.5 629 2102.5 629 2168.5 575.498 2222 509.5 2222 443.502 2222 390 2168.5 390 2102.5Z" fill="#FFFFFF" fill-rule="evenodd"/><path d="M1117 2102.5C1117 2036.5 1170.5 1983 1236.5 1983 1302.5 1983 1356 2036.5 1356 2102.5 1356 2168.5 1302.5 2222 1236.5 2222 1170.5 2222 1117 2168.5 1117 2102.5Z" fill="#FFFFFF" fill-rule="evenodd"/><path d="M1844 2102.5C1844 2036.5 1897.5 1983 1963.5 1983 2029.5 1983 2083 2036.5 2083 2102.5 2083 2168.5 2029.5 2222 1963.5 2222 1897.5 2222 1844 2168.5 1844 2102.5Z" fill="#FFFFFF" fill-rule="evenodd"/><path d="M2571 2102.5C2571 2036.5 2624.5 1983 2690.5 1983 2756.5 1983 2810 2036.5 2810 2102.5 2810 2168.5 2756.5 2222 2690.5 2222 2624.5 2222 2571 2168.5 2571 2102.5Z" fill="#FFFFFF" fill-rule="evenodd"/><path d="M2454 1505.5C2454 1439.5 2507.5 1386 2573.5 1386 2639.5 1386 2693 1439.5 2693 1505.5 2693 1571.5 2639.5 1625 2573.5 1625 2507.5 1625 2454 1571.5 2454 1505.5Z" fill="#FFFFFF" fill-rule="evenodd"/><path d="M1528.5 1949C1528.5 1883 1582 1829.5 1648 1829.5 1714 1829.5 1767.5 1883 1767.5 1949 1767.5 2015 1714 2068.5 1648 2068.5 1582 2068.5 1528.5 2015 1528.5 1949Z" stroke="#FFFFFF" stroke-width="4.58333" stroke-miterlimit="8" fill="none" fill-rule="evenodd"/><path d="M2255.5 1949C2255.5 1883 2309 1829.5 2375 1829.5 2441 1829.5 2494.5 1883 2494.5 1949 2494.5 2015 2441 2068.5 2375 2068.5 2309 2068.5 2255.5 2015 2255.5 1949Z" stroke="#FFFFFF" stroke-width="4.58333" stroke-miterlimit="8" fill="none" fill-rule="evenodd"/><path d="M1172.5 2158C1172.5 2092 1226 2038.5 1292 2038.5 1358 2038.5 1411.5 2092 1411.5 2158 1411.5 2224 1358 2277.5 1292 2277.5 1226 2277.5 1172.5 2224 1172.5 2158Z" stroke="#FFFFFF" stroke-width="4.58333" stroke-miterlimit="8" fill="none" fill-rule="evenodd"/><path d="M1899.5 2158C1899.5 2092 1953 2038.5 2019 2038.5 2085 2038.5 2138.5 2092 2138.5 2158 2138.5 2224 2085 2277.5 2019 2277.5 1953 2277.5 1899.5 2224 1899.5 2158Z" stroke="#FFFFFF" stroke-width="4.58333" stroke-miterlimit="8" fill="none" fill-rule="evenodd"/><path d="M2626.5 2158C2626.5 2092 2680 2038.5 2746 2038.5 2812 2038.5 2865.5 2092 2865.5 2158 2865.5 2224 2812 2277.5 2746 2277.5 2680 2277.5 2626.5 2224 2626.5 2158Z" stroke="#FFFFFF" stroke-width="4.58333" stroke-miterlimit="8" fill="none" fill-rule="evenodd"/><path d="M2509.5 1561C2509.5 1495 2563 1441.5 2629 1441.5 2695 1441.5 2748.5 1495 2748.5 1561 2748.5 1627 2695 1680.5 2629 1680.5 2563 1680.5 2509.5 1627 2509.5 1561Z" stroke="#FFFFFF" stroke-width="4.58333" stroke-miterlimit="8" fill="none" fill-rule="evenodd"/><path d="M293.5 1325.5C293.5 1259.78 347.002 1206.5 413 1206.5 478.998 1206.5 532.5 1259.78 532.5 1325.5 532.5 1391.22 478.998 1444.5 413 1444.5 347.002 1444.5 293.5 1391.22 293.5 1325.5Z" stroke="#FFFFFF" stroke-width="4.58333" stroke-miterlimit="8" fill="none" fill-rule="evenodd"/><path d="M1020.5 1325.5C1020.5 1259.78 1074 1206.5 1140 1206.5 1206 1206.5 1259.5 1259.78 1259.5 1325.5 1259.5 1391.22 1206 1444.5 1140 1444.5 1074 1444.5 1020.5 1391.22 1020.5 1325.5Z" stroke="#FFFFFF" stroke-width="4.58333" stroke-miterlimit="8" fill="none" fill-rule="evenodd"/><path d="M-62.5001 1535C-62.5001 1469-8.99812 1415.5 56.9999 1415.5 122.998 1415.5 176.5 1469 176.5 1535 176.5 1601 122.998 1654.5 56.9999 1654.5-8.99812 1654.5-62.5001 1601-62.5001 1535Z" stroke="#FFFFFF" stroke-width="4.58333" stroke-miterlimit="8" fill="none" fill-rule="evenodd"/><path d="M664.5 1535C664.5 1469 718.002 1415.5 784 1415.5 849.998 1415.5 903.5 1469 903.5 1535 903.5 1601 849.998 1654.5 784 1654.5 718.002 1654.5 664.5 1601 664.5 1535Z" stroke="#FFFFFF" stroke-width="4.58333" stroke-miterlimit="8" fill="none" fill-rule="evenodd"/><path d="M1391.5 1535C1391.5 1469 1445 1415.5 1511 1415.5 1577 1415.5 1630.5 1469 1630.5 1535 1630.5 1601 1577 1654.5 1511 1654.5 1445 1654.5 1391.5 1601 1391.5 1535Z" stroke="#FFFFFF" stroke-width="4.58333" stroke-miterlimit="8" fill="none" fill-rule="evenodd"/><path d="M1274.5 938C1274.5 872.002 1328 818.5 1394 818.5 1460 818.5 1513.5 872.002 1513.5 938 1513.5 1004 1460 1057.5 1394 1057.5 1328 1057.5 1274.5 1004 1274.5 938Z" stroke="#FFFFFF" stroke-width="4.58333" stroke-miterlimit="8" fill="none" fill-rule="evenodd"/><path d="M2494 815C2494 666.988 2613.99 547 2762 547 2910.01 547 3030 666.988 3030 815 3030 963.012 2910.01 1083 2762 1083 2613.99 1083 2494 963.012 2494 815Z" fill="#FFFFFF" fill-rule="evenodd"/><path d="M1381 233C1381 84.9876 1501.21-35.0001 1649.5-35.0001 1797.79-35.0001 1918 84.9876 1918 233 1918 381.012 1797.79 501 1649.5 501 1501.21 501 1381 381.012 1381 233Z" fill="#FFFFFF" fill-rule="evenodd"/><path d="M629 253C629 104.988 748.988-15.0001 897-15.0001 1045.01-15.0001 1165 104.988 1165 253 1165 401.012 1045.01 521 897 521 748.988 521 629 401.012 629 253Z" fill="#FFFFFF" fill-rule="evenodd"/><path d="M2108 223.5C2108 75.2115 2228.21-45 2376.5-45 2524.79-45 2645 75.2115 2645 223.5 2645 371.788 2524.79 492 2376.5 492 2228.21 492 2108 371.788 2108 223.5Z" fill="#FFFFFF" fill-rule="evenodd"/><path d="M2145.5 930.5C2145.5 782.488 2265.49 662.5 2413.5 662.5 2561.51 662.5 2681.5 782.488 2681.5 930.5 2681.5 1078.51 2561.51 1198.5 2413.5 1198.5 2265.49 1198.5 2145.5 1078.51 2145.5 930.5Z" stroke="#FFFFFF" stroke-width="4.58333" stroke-miterlimit="8" fill="none" fill-rule="evenodd"/><path d="M537.5 498.5C537.5 350.488 657.488 230.5 805.5 230.5 953.512 230.5 1073.5 350.488 1073.5 498.5 1073.5 646.512 953.512 766.5 805.5 766.5 657.488 766.5 537.5 646.512 537.5 498.5Z" stroke="#FFFFFF" stroke-width="4.58333" stroke-miterlimit="8" fill="none" fill-rule="evenodd"/><path d="M1363.5 511.5C1363.5 363.488 1483.49 243.5 1631.5 243.5 1779.51 243.5 1899.5 363.488 1899.5 511.5 1899.5 659.512 1779.51 779.5 1631.5 779.5 1483.49 779.5 1363.5 659.512 1363.5 511.5Z" stroke="#FFFFFF" stroke-width="4.58333" stroke-miterlimit="8" fill="none" fill-rule="evenodd"/><path d="M2561.5 343.5C2561.5 195.488 2681.71 75.5001 2830 75.5001 2978.29 75.5001 3098.5 195.488 3098.5 343.5 3098.5 491.512 2978.29 611.5 2830 611.5 2681.71 611.5 2561.5 491.512 2561.5 343.5Z" stroke="#FFFFFF" stroke-width="4.58333" stroke-miterlimit="8" fill="none" fill-rule="evenodd"/><path d="M3100.65 1086.05C3153.91 1124.98 3165.54 1199.72 3126.61 1252.98 3087.69 1306.25 3012.95 1317.87 2959.68 1278.95 2906.42 1240.02 2894.79 1165.28 2933.72 1112.02 2972.64 1058.75 3047.38 1047.13 3100.65 1086.05Z" fill="#FFFFFF" fill-rule="evenodd"/><path d="M3155.65 1141.05C3208.91 1179.98 3220.54 1254.72 3181.61 1307.98 3142.69 1361.25 3067.95 1372.87 3014.68 1333.95 2961.42 1295.02 2949.79 1220.28 2988.72 1167.02 3027.64 1113.75 3102.38 1102.13 3155.65 1141.05Z" stroke="#FFFFFF" stroke-width="4.58333" stroke-miterlimit="8" fill="none" fill-rule="evenodd"/></g></svg>