<?xml version="1.0" standalone="no"?>
<!DOCTYPE svg PUBLIC "-//W3C//DTD SVG 20010904//EN"
 "http://www.w3.org/TR/2001/REC-SVG-20010904/DTD/svg10.dtd">
<svg version="1.0" xmlns="http://www.w3.org/2000/svg"
 width="1712.000000pt" height="579.000000pt" viewBox="0 0 1712.000000 579.000000"
 preserveAspectRatio="xMidYMid meet">

<g transform="translate(0.000000,579.000000) scale(0.100000,-0.100000)"
fill="#000000" stroke="none">
<path d="M0 3540 l0 -1890 415 0 415 0 0 1890 0 1890 -415 0 -415 0 0 -1890z"/>
<path d="M900 3540 l0 -1890 150 0 150 0 0 1890 0 1890 -150 0 -150 0 0 -1890z"/>
<path d="M1620 4440 c0 -9 366 -1606 392 -1707 l10 -43 192 0 191 0 144 533
c79 292 147 538 151 545 3 7 73 -232 155 -532 l149 -546 192 0 c191 0 192 0
197 23 14 53 397 1727 397 1732 0 3 -92 5 -204 5 -186 0 -205 -2 -210 -17 -3
-10 -50 -263 -106 -563 -55 -300 -102 -549 -104 -555 -6 -16 -7 -11 -156 560
-78 297 -143 548 -146 558 -5 15 -21 17 -159 17 l-154 0 -14 -52 c-9 -29 -75
-280 -147 -558 -142 -548 -139 -535 -145 -529 -2 2 -49 249 -104 549 -56 300
-103 555 -106 568 -5 22 -6 22 -210 22 -129 0 -205 -4 -205 -10z"/>
<path d="M3950 3570 l0 -880 205 0 205 0 0 355 0 355 325 0 325 0 0 -355 0
-355 205 0 205 0 0 880 0 880 -205 0 -205 0 0 -370 0 -370 -325 0 -325 0 0
370 0 370 -205 0 -205 0 0 -880z"/>
<path d="M5690 3571 l0 -881 354 0 c387 0 468 8 586 56 155 62 291 187 360
328 71 143 75 174 75 501 0 276 -1 294 -23 365 -41 130 -87 206 -181 300 -93
92 -171 140 -296 181 -68 23 -84 23 -472 27 l-403 3 0 -880z m737 554 c99 -29
183 -131 218 -266 18 -67 21 -481 4 -561 -26 -122 -95 -220 -187 -265 -55 -27
-63 -28 -207 -28 l-150 0 -3 568 -2 567 138 0 c94 0 155 -5 189 -15z"/>
<path d="M7260 3385 l0 -695 40 0 40 0 0 330 0 330 355 0 355 0 0 -330 0 -330
40 0 40 0 0 695 0 695 -40 0 -40 0 0 -325 0 -325 -355 0 -355 0 0 325 0 325
-40 0 -40 0 0 -695z"/>
<path d="M10460 3385 l0 -695 40 0 40 0 0 695 0 695 -40 0 -40 0 0 -695z"/>
<path d="M12990 3385 l0 -695 35 0 35 0 1 503 c1 276 4 567 8 646 l6 145 244
-320 c135 -175 254 -331 266 -345 l21 -25 264 346 265 346 3 -648 2 -648 40 0
40 0 0 695 0 696 -59 -3 -58 -3 -245 -319 c-134 -176 -248 -320 -252 -320 -5
-1 -120 144 -255 321 l-246 322 -57 1 -58 0 0 -695z"/>
<path d="M15630 3730 l0 -180 -90 0 -90 0 0 -40 0 -39 88 -3 87 -3 3 -387 2
-388 35 0 35 0 0 390 0 390 90 0 90 0 0 40 0 40 -90 0 -90 0 0 180 0 180 -35
0 -35 0 0 -180z"/>
<path d="M10768 3835 c-35 -19 -46 -67 -23 -101 41 -63 121 -47 140 28 6 22 1
33 -23 58 -34 33 -54 36 -94 15z"/>
<path d="M8638 3609 c-104 -24 -225 -113 -289 -211 -53 -83 -72 -164 -67 -284
3 -86 8 -108 36 -165 61 -128 180 -230 306 -264 49 -13 88 -17 160 -13 82 4
105 10 168 40 70 34 168 111 188 149 9 16 5 20 -30 30 -40 12 -40 12 -90 -35
-28 -26 -76 -59 -108 -74 -51 -24 -69 -27 -162 -27 -95 1 -111 3 -165 30 -130
63 -213 184 -222 324 l-6 81 430 0 429 0 -6 48 c-28 219 -227 384 -459 381
-42 -1 -93 -5 -113 -10z m275 -102 c31 -14 77 -45 102 -68 45 -42 105 -130
105 -156 0 -10 -81 -13 -370 -13 -203 0 -370 3 -370 8 0 14 42 85 72 123 41
51 103 94 174 119 82 29 208 24 287 -13z"/>
<path d="M9670 3604 c-72 -19 -133 -56 -201 -121 -261 -248 -153 -689 195
-795 56 -17 86 -20 167 -16 89 4 107 9 173 41 46 23 94 57 130 94 l56 56 0
-86 0 -87 40 0 40 0 0 430 0 430 -40 0 -40 0 0 -61 0 -61 -54 54 c-63 63 -129
101 -211 123 -73 19 -183 18 -255 -1z m290 -96 c75 -34 150 -104 191 -180 33
-62 34 -65 34 -183 0 -118 -1 -121 -34 -183 -41 -75 -115 -145 -191 -181 -48
-23 -68 -26 -160 -26 -92 0 -112 3 -160 26 -254 120 -314 447 -118 642 52 52
119 92 182 108 60 16 197 3 256 -23z"/>
<path d="M12231 3604 c-78 -21 -147 -61 -210 -124 -236 -233 -166 -624 136
-767 69 -34 88 -38 174 -41 152 -6 248 29 358 132 l54 51 -7 -43 c-10 -65 -44
-128 -102 -191 -147 -159 -393 -168 -553 -21 -42 39 -46 40 -75 29 -17 -7 -35
-15 -39 -19 -14 -12 115 -122 178 -151 216 -101 470 -30 600 167 72 109 75
129 75 550 l0 374 -35 0 c-30 0 -35 -3 -35 -24 0 -13 -3 -38 -6 -55 l-7 -31
-52 49 c-119 113 -296 158 -454 115z m251 -85 c110 -37 184 -105 236 -217 37
-79 42 -201 13 -286 -43 -122 -160 -231 -275 -257 -189 -42 -373 46 -459 220
-29 60 -32 73 -32 161 1 120 25 186 97 265 113 123 268 166 420 114z"/>
<path d="M14748 3610 c-128 -32 -255 -139 -315 -265 -32 -68 -37 -88 -41 -176
-6 -126 19 -213 87 -303 99 -130 228 -196 385 -196 137 0 233 39 334 133 l52
50 0 -82 0 -81 40 0 40 0 0 430 0 430 -40 0 -40 0 0 -56 0 -56 -57 53 c-32 29
-91 68 -132 87 -67 32 -83 36 -175 38 -55 2 -118 -1 -138 -6z m279 -104 c75
-34 162 -121 198 -198 22 -46 25 -67 25 -164 0 -103 -2 -115 -30 -170 -130
-261 -479 -302 -664 -77 -15 17 -39 58 -54 90 -24 51 -27 70 -27 158 0 89 3
107 28 160 47 102 142 185 252 222 68 22 199 12 272 -21z"/>
<path d="M11345 3594 c-74 -16 -113 -32 -152 -61 -24 -18 -45 -33 -48 -33 -3
0 -5 11 -5 25 0 23 -4 25 -40 25 l-40 0 0 -430 0 -430 40 0 40 0 0 339 0 339
33 44 c44 58 141 108 207 108 98 0 186 -52 246 -145 18 -28 19 -54 22 -357 l3
-328 40 0 40 0 -3 333 c-3 324 -4 333 -26 378 -52 105 -135 168 -246 188 -61
11 -76 12 -111 5z"/>
<path d="M10770 3120 l0 -430 40 0 40 0 0 430 0 430 -40 0 -40 0 0 -430z"/>
<path d="M4539 2070 l46 -230 27 0 c30 0 24 -16 77 193 16 65 31 121 34 123 3
3 22 -67 43 -155 38 -161 38 -161 66 -161 20 0 29 6 33 23 10 41 85 421 85
429 0 4 -13 8 -29 8 -35 0 -32 7 -61 -160 -12 -69 -25 -133 -29 -144 -4 -12
-19 34 -45 143 -38 158 -39 161 -65 161 -25 0 -27 -3 -60 -148 -18 -81 -37
-153 -41 -161 -7 -12 -19 43 -52 237 -12 71 -12 72 -43 72 l-32 0 46 -230z"/>
<path d="M5041 2088 c-35 -117 -66 -221 -68 -230 -4 -14 1 -18 25 -18 29 0 32
3 48 60 l17 60 68 0 68 0 17 -60 c16 -58 18 -60 49 -60 l33 0 -45 153 c-25 83
-55 186 -67 227 -20 71 -23 75 -52 78 l-30 3 -63 -213z m139 -70 c0 -15 -9
-18 -50 -18 -31 0 -50 4 -50 11 0 11 35 136 47 169 5 15 52 -129 53 -162z"/>
<path d="M5350 2070 l0 -230 125 0 125 0 0 25 c0 25 0 25 -95 25 l-95 0 0 205
0 205 -30 0 -30 0 0 -230z"/>
<path d="M5660 2070 l0 -230 30 0 30 0 0 105 c0 83 3 105 14 105 8 0 44 -47
81 -105 66 -104 67 -105 106 -105 l38 0 -76 118 c-42 64 -76 122 -76 127 0 6
32 57 71 113 l72 102 -39 0 c-37 0 -39 -2 -101 -100 -34 -55 -68 -100 -76
-100 -11 0 -14 21 -14 100 l0 100 -30 0 -30 0 0 -230z"/>
<path d="M6160 2070 l0 -230 30 0 30 0 0 105 0 105 80 0 c73 0 80 2 80 20 0
18 -7 20 -80 20 l-80 0 0 80 0 80 90 0 c89 0 90 0 90 25 l0 25 -120 0 -120 0
0 -230z"/>
<path d="M6533 2284 c-55 -28 -73 -81 -73 -218 0 -132 15 -177 68 -208 39 -23
120 -23 167 -1 58 28 75 77 75 217 0 126 -7 151 -54 196 -35 31 -134 39 -183
14z m126 -38 c41 -22 51 -55 51 -176 0 -63 -5 -120 -12 -135 -12 -27 -54 -55
-83 -55 -29 0 -71 28 -83 55 -7 15 -12 73 -12 141 0 91 4 120 17 140 28 43 74
54 122 30z"/>
<path d="M6850 2070 l0 -230 30 0 29 0 3 98 3 97 47 3 c40 3 52 -1 73 -22 20
-20 25 -35 25 -78 0 -84 7 -98 47 -98 23 0 32 4 27 12 -4 6 -10 47 -14 92 -7
72 -10 82 -36 103 -16 13 -23 23 -16 23 19 0 52 61 52 98 0 94 -54 132 -190
132 l-80 0 0 -230z m187 158 c29 -27 30 -76 2 -112 -18 -22 -28 -26 -75 -26
l-54 0 0 80 0 80 52 0 c39 0 57 -5 75 -22z"/>
<path d="M7350 2070 l0 -230 30 0 30 0 0 100 0 100 90 0 90 0 0 -100 0 -100
30 0 30 0 0 230 0 230 -30 0 -30 0 0 -105 0 -106 -87 3 -88 3 -3 103 -3 102
-29 0 -30 0 0 -230z"/>
<path d="M7750 2070 l0 -230 120 0 120 0 0 25 c0 25 -1 25 -90 25 l-90 0 0 85
0 85 75 0 c68 0 75 2 75 20 0 18 -7 20 -75 20 l-75 0 0 75 0 75 90 0 c89 0 90
0 90 25 l0 25 -120 0 -120 0 0 -230z"/>
<path d="M8157 2293 c-4 -6 -78 -254 -128 -425 -7 -27 -6 -28 25 -28 31 0 33
2 50 60 l16 61 68 -3 67 -3 18 -57 c17 -54 21 -58 49 -58 20 0 29 4 25 13 -2
6 -33 110 -68 230 -62 215 -63 217 -90 217 -15 0 -30 -3 -32 -7z m52 -170 c39
-133 40 -123 -18 -123 -34 0 -51 4 -51 13 0 13 43 177 47 177 1 0 11 -30 22
-67z"/>
<path d="M8410 2070 l0 -230 120 0 120 0 0 25 c0 25 -1 25 -90 25 l-90 0 0
205 0 205 -30 0 -30 0 0 -230z"/>
<path d="M8600 2275 c0 -24 3 -25 60 -25 l60 0 0 -205 0 -205 30 0 30 0 0 205
0 205 60 0 c57 0 60 1 60 25 l0 25 -150 0 -150 0 0 -25z"/>
<path d="M8960 2070 l0 -230 30 0 30 0 0 100 0 100 90 0 90 0 0 -100 0 -100
30 0 30 0 0 230 0 230 -30 0 -30 0 0 -105 0 -105 -90 0 -90 0 0 105 0 105 -30
0 -30 0 0 -230z"/>
<path d="M9510 2070 l0 -230 135 0 c113 0 135 2 135 15 0 12 -19 15 -115 15
l-115 0 0 95 0 95 100 0 c82 0 100 3 100 15 0 12 -18 15 -100 15 l-100 0 0 90
0 90 115 0 c96 0 115 3 115 15 0 13 -22 15 -135 15 l-135 0 0 -230z"/>
<path d="M9870 2070 c0 -196 2 -230 15 -230 12 0 15 31 17 197 l3 198 129
-198 c90 -136 135 -197 148 -197 17 0 18 15 18 230 0 223 -1 230 -20 230 -19
0 -20 -8 -22 -193 l-3 -193 -125 193 c-82 125 -131 192 -142 192 -17 1 -18
-16 -18 -229z"/>
<path d="M10270 2285 c0 -12 16 -15 80 -15 l80 0 0 -215 c0 -208 1 -215 20
-215 19 0 20 7 20 215 l0 215 75 0 c60 0 75 3 75 15 0 13 -26 15 -175 15 -149
0 -175 -2 -175 -15z"/>
<path d="M10700 2070 l0 -230 135 0 c113 0 135 2 135 15 0 13 -20 15 -120 15
l-120 0 0 95 0 95 105 0 c87 0 105 3 105 15 0 12 -18 15 -105 15 l-106 0 3 88
3 87 118 3 c95 2 117 5 117 17 0 13 -23 15 -135 15 l-135 0 0 -230z"/>
<path d="M11050 2070 c0 -223 1 -230 20 -230 19 0 20 7 20 106 l0 106 85 -3
c76 -4 87 -7 111 -31 21 -20 28 -39 31 -80 7 -85 11 -98 34 -98 16 0 19 4 13
18 -4 9 -10 46 -13 82 -7 74 -22 106 -52 115 -20 7 -19 8 11 33 23 20 33 38
37 69 14 103 -42 142 -199 143 l-98 0 0 -230z m215 186 c26 -11 36 -24 46 -56
11 -36 10 -43 -8 -68 -30 -40 -60 -52 -140 -52 l-73 0 0 95 0 95 70 0 c39 0
86 -6 105 -14z"/>
<path d="M11470 2070 c0 -198 2 -230 15 -230 12 0 15 17 15 95 l0 95 78 1 c98
0 140 15 169 58 47 70 17 172 -57 198 -19 7 -77 12 -127 12 l-93 1 0 -230z
m228 175 c40 -34 49 -75 25 -123 -22 -45 -60 -61 -155 -61 l-68 -1 0 98 c0 54
3 102 7 105 3 4 41 7 84 7 68 0 81 -3 107 -25z"/>
<path d="M11860 2070 c0 -223 1 -230 20 -230 19 0 20 7 20 106 l0 106 85 -3
c76 -4 87 -7 111 -31 21 -20 28 -39 31 -80 7 -85 11 -98 34 -98 16 0 19 4 13
18 -4 9 -10 46 -13 82 -7 74 -22 106 -52 115 -20 7 -19 8 11 33 23 20 33 38
37 69 14 103 -42 142 -199 143 l-98 0 0 -230z m215 186 c26 -11 36 -24 46 -56
11 -36 10 -43 -8 -68 -30 -40 -60 -52 -140 -52 l-73 0 0 95 0 95 70 0 c39 0
86 -6 105 -14z"/>
<path d="M12290 2070 c0 -223 1 -230 20 -230 19 0 20 7 20 230 0 223 -1 230
-20 230 -19 0 -20 -7 -20 -230z"/>
<path d="M12501 2281 c-55 -29 -76 -88 -50 -145 12 -26 75 -61 164 -92 97 -34
124 -98 63 -149 -29 -25 -38 -27 -96 -23 -58 4 -68 8 -93 36 -16 18 -29 39
-29 47 0 8 -7 15 -15 15 -22 0 -19 -43 7 -75 28 -36 76 -55 140 -55 70 0 118
25 141 72 16 32 17 43 7 73 -15 47 -46 69 -139 100 -43 14 -88 36 -100 48 -29
32 -28 81 4 112 35 36 121 36 163 0 16 -14 33 -36 36 -50 4 -14 14 -25 22 -25
13 0 15 7 10 32 -12 62 -67 98 -148 98 -31 -1 -67 -8 -87 -19z"/>
<path d="M12840 2070 l0 -230 135 0 c113 0 135 2 135 15 0 12 -19 15 -115 15
l-115 0 0 95 0 95 100 0 c82 0 100 3 100 15 0 12 -18 15 -100 15 l-100 0 0 90
0 90 115 0 c96 0 115 3 115 15 0 13 -22 15 -135 15 l-135 0 0 -230z"/>
<path d="M13243 2280 c-40 -24 -53 -48 -53 -100 0 -56 37 -90 129 -119 110
-35 153 -78 130 -132 -35 -85 -218 -76 -236 11 -4 21 -11 30 -24 30 -23 0 -24
-10 -4 -56 18 -44 79 -73 152 -74 95 0 153 42 153 111 0 52 -37 93 -108 119
-31 11 -74 28 -95 37 -72 31 -87 85 -38 134 26 25 37 29 86 29 49 0 60 -4 86
-29 16 -16 29 -39 29 -50 0 -15 6 -21 21 -21 22 0 20 17 -7 71 -29 57 -156 79
-221 39z"/>
</g>
</svg>
