<svg width="4214" height="1543" xmlns="http://www.w3.org/2000/svg" xmlns:xlink="http://www.w3.org/1999/xlink" overflow="hidden"><defs><clipPath id="clip0"><rect x="63" y="521" width="4214" height="1543"/></clipPath><clipPath id="clip1"><rect x="3295" y="310" width="982" height="723"/></clipPath></defs><g clip-path="url(#clip0)" transform="translate(-63 -521)"><path d="M65.5002 635.822C65.5002 573.788 115.788 523.5 177.822 523.5L2141.18 523.5C2203.21 523.5 2253.5 573.788 2253.5 635.822L2253.5 1926.18C2253.5 1988.21 2203.21 2038.5 2141.18 2038.5L177.822 2038.5C115.788 2038.5 65.5002 1988.21 65.5002 1926.18Z" stroke="#FFFFFF" stroke-width="4.58333" stroke-miterlimit="8" fill="#084442" fill-rule="evenodd"/><path d="M353.811 608.898 353.811 1951.81" stroke="#FFFFFF" stroke-width="4.58333" stroke-linejoin="round" stroke-miterlimit="10" fill="none" fill-rule="evenodd"/><path d="M547.931 608.898 547.931 878.857" stroke="#FFFFFF" stroke-width="4.58333" stroke-linejoin="round" stroke-miterlimit="10" fill="none" fill-rule="evenodd"/><path d="M547.931 878.857 547.931 1681.86" stroke="#0F8378" stroke-width="4.58333" stroke-linejoin="round" stroke-miterlimit="10" fill="none" fill-rule="evenodd"/><path d="M547.931 1681.86 547.931 1951.81" stroke="#FFFFFF" stroke-width="4.58333" stroke-linejoin="round" stroke-miterlimit="10" fill="none" fill-rule="evenodd"/><path d="M742.051 608.898 742.051 878.857" stroke="#FFFFFF" stroke-width="4.58333" stroke-linejoin="round" stroke-miterlimit="10" fill="none" fill-rule="evenodd"/><path d="M742.051 878.857 742.051 1681.86" stroke="#0F8378" stroke-width="4.58333" stroke-linejoin="round" stroke-miterlimit="10" fill="none" fill-rule="evenodd"/><path d="M742.051 1681.86 742.051 1951.81" stroke="#FFFFFF" stroke-width="4.58333" stroke-linejoin="round" stroke-miterlimit="10" fill="none" fill-rule="evenodd"/><path d="M887.203 1010.4 887.203 1148.81" stroke="#0F8378" stroke-width="4.58333" stroke-linejoin="round" stroke-miterlimit="10" fill="none" fill-rule="evenodd"/><path d="M962.369 608.898 962.369 878.857" stroke="#FFFFFF" stroke-width="4.58333" stroke-linejoin="round" stroke-miterlimit="10" fill="none" fill-rule="evenodd"/><path d="M962.369 878.857 962.369 1681.86" stroke="#0F8378" stroke-width="4.58333" stroke-linejoin="round" stroke-miterlimit="10" fill="none" fill-rule="evenodd"/><path d="M962.369 1681.86 962.369 1951.81" stroke="#FFFFFF" stroke-width="4.58333" stroke-linejoin="round" stroke-miterlimit="10" fill="none" fill-rule="evenodd"/><path d="M1156.49 608.898 1156.49 878.857" stroke="#FFFFFF" stroke-width="4.58333" stroke-linejoin="round" stroke-miterlimit="10" fill="none" fill-rule="evenodd"/><path d="M1156.49 878.857 1156.49 1681.86" stroke="#0F8378" stroke-width="4.58333" stroke-linejoin="round" stroke-miterlimit="10" fill="none" fill-rule="evenodd"/><path d="M1156.49 1681.86 1156.49 1951.81" stroke="#FFFFFF" stroke-width="4.58333" stroke-linejoin="round" stroke-miterlimit="10" fill="none" fill-rule="evenodd"/><path d="M1350.61 608.898 1350.61 878.857" stroke="#FFFFFF" stroke-width="4.58333" stroke-linejoin="round" stroke-miterlimit="10" fill="none" fill-rule="evenodd"/><path d="M1350.61 878.857 1350.61 1681.86" stroke="#0F8378" stroke-width="4.58333" stroke-linejoin="round" stroke-miterlimit="10" fill="none" fill-rule="evenodd"/><path d="M1350.61 1681.86 1350.61 1951.81" stroke="#FFFFFF" stroke-width="4.58333" stroke-linejoin="round" stroke-miterlimit="10" fill="none" fill-rule="evenodd"/><path d="M1425.78 1010.4 1425.78 1148.81" stroke="#0F8378" stroke-width="4.58333" stroke-linejoin="round" stroke-miterlimit="10" fill="none" fill-rule="evenodd"/><path d="M1575.85 608.898 1575.85 878.857" stroke="#FFFFFF" stroke-width="4.58333" stroke-linejoin="round" stroke-miterlimit="10" fill="none" fill-rule="evenodd"/><path d="M1575.85 878.857 1575.85 1681.86" stroke="#0F8378" stroke-width="4.58333" stroke-linejoin="round" stroke-miterlimit="10" fill="none" fill-rule="evenodd"/><path d="M1575.85 1681.86 1575.85 1951.81" stroke="#FFFFFF" stroke-width="4.58333" stroke-linejoin="round" stroke-miterlimit="10" fill="none" fill-rule="evenodd"/><path d="M1769.97 608.898 1769.97 878.857" stroke="#FFFFFF" stroke-width="4.58333" stroke-linejoin="round" stroke-miterlimit="10" fill="none" fill-rule="evenodd"/><path d="M1769.97 878.857 1769.97 1681.86" stroke="#0F8378" stroke-width="4.58333" stroke-linejoin="round" stroke-miterlimit="10" fill="none" fill-rule="evenodd"/><path d="M1769.97 1681.86 1769.97 1951.81" stroke="#FFFFFF" stroke-width="4.58333" stroke-linejoin="round" stroke-miterlimit="10" fill="none" fill-rule="evenodd"/><path d="M1964.09 608.898 1964.09 1951.81" stroke="#FFFFFF" stroke-width="4.58333" stroke-linejoin="round" stroke-miterlimit="10" fill="none" fill-rule="evenodd"/><path d="M157.399 745.023 2160.51 745.023" stroke="#FFFFFF" stroke-width="4.58333" stroke-linejoin="round" stroke-miterlimit="10" fill="none" fill-rule="evenodd"/><path d="M157.399 878.857 2160.51 878.857" stroke="#FFFFFF" stroke-width="4.58333" stroke-linejoin="round" stroke-miterlimit="10" fill="none" fill-rule="evenodd"/><path d="M157.399 1012.69 353.811 1012.69" stroke="#FFFFFF" stroke-width="4.58333" stroke-linejoin="round" stroke-miterlimit="10" fill="none" fill-rule="evenodd"/><path d="M353.811 1012.69 1964.09 1012.69" stroke="#0F8378" stroke-width="4.58333" stroke-linejoin="round" stroke-miterlimit="10" fill="none" fill-rule="evenodd"/><path d="M1964.09 1012.69 2160.51 1012.69" stroke="#FFFFFF" stroke-width="4.58333" stroke-linejoin="round" stroke-miterlimit="10" fill="none" fill-rule="evenodd"/><path d="M157.399 1146.52 353.811 1146.52" stroke="#FFFFFF" stroke-width="4.58333" stroke-linejoin="round" stroke-miterlimit="10" fill="none" fill-rule="evenodd"/><path d="M353.811 1146.52 1964.09 1146.52" stroke="#0F8378" stroke-width="4.58333" stroke-linejoin="round" stroke-miterlimit="10" fill="none" fill-rule="evenodd"/><path d="M1964.09 1146.52 2160.51 1146.52" stroke="#FFFFFF" stroke-width="4.58333" stroke-linejoin="round" stroke-miterlimit="10" fill="none" fill-rule="evenodd"/><path d="M157.399 1280.36 353.811 1280.36" stroke="#FFFFFF" stroke-width="4.58333" stroke-linejoin="round" stroke-miterlimit="10" fill="none" fill-rule="evenodd"/><path d="M353.811 1280.36 1964.09 1280.36" stroke="#0F8378" stroke-width="4.58333" stroke-linejoin="round" stroke-miterlimit="10" fill="none" fill-rule="evenodd"/><path d="M1964.09 1280.36 2160.51 1280.36" stroke="#FFFFFF" stroke-width="4.58333" stroke-linejoin="round" stroke-miterlimit="10" fill="none" fill-rule="evenodd"/><path d="M157.399 1414.19 353.811 1414.19" stroke="#FFFFFF" stroke-width="4.58333" stroke-linejoin="round" stroke-miterlimit="10" fill="none" fill-rule="evenodd"/><path d="M353.811 1414.19 1964.09 1414.19" stroke="#0F8378" stroke-width="4.58333" stroke-linejoin="round" stroke-miterlimit="10" fill="none" fill-rule="evenodd"/><path d="M1964.09 1414.19 2160.51 1414.19" stroke="#FFFFFF" stroke-width="4.58333" stroke-linejoin="round" stroke-miterlimit="10" fill="none" fill-rule="evenodd"/><path d="M157.399 1548.02 353.811 1548.02" stroke="#FFFFFF" stroke-width="4.58333" stroke-linejoin="round" stroke-miterlimit="10" fill="none" fill-rule="evenodd"/><path d="M353.811 1548.02 1964.09 1548.02" stroke="#0F8378" stroke-width="4.58333" stroke-linejoin="round" stroke-miterlimit="10" fill="none" fill-rule="evenodd"/><path d="M1964.09 1548.02 2160.51 1548.02" stroke="#FFFFFF" stroke-width="4.58333" stroke-linejoin="round" stroke-miterlimit="10" fill="none" fill-rule="evenodd"/><path d="M157.399 1681.86 2160.51 1681.86" stroke="#FFFFFF" stroke-width="4.58333" stroke-linejoin="round" stroke-miterlimit="10" fill="none" fill-rule="evenodd"/><path d="M157.399 1815.69 2160.51 1815.69" stroke="#FFFFFF" stroke-width="4.58333" stroke-linejoin="round" stroke-miterlimit="10" fill="none" fill-rule="evenodd"/><path d="M159.691 608.898 159.691 1951.81" stroke="#FFFFFF" stroke-width="4.58333" stroke-linejoin="round" stroke-miterlimit="10" fill="none" fill-rule="evenodd"/><path d="M2158.21 608.898 2158.21 1951.81" stroke="#FFFFFF" stroke-width="4.58333" stroke-linejoin="round" stroke-miterlimit="10" fill="none" fill-rule="evenodd"/><path d="M157.399 611.19 2160.51 611.19" stroke="#FFFFFF" stroke-width="4.58333" stroke-linejoin="round" stroke-miterlimit="10" fill="none" fill-rule="evenodd"/><path d="M157.399 1949.52 2160.51 1949.52" stroke="#FFFFFF" stroke-width="4.58333" stroke-linejoin="round" stroke-miterlimit="10" fill="none" fill-rule="evenodd"/><text fill="#FFFFFF" font-family="Comfortaa Light,Comfortaa Light_MSFontService,sans-serif" font-weight="300" font-size="183" transform="matrix(1 0 0 1 697.182 1135)">SYSTEM’S <tspan font-size="183" x="-242.917" y="220">ASPECT RATIO:</tspan><tspan font-size="183" x="304.219" y="440">16:9</tspan></text><path d="M2314 522.508 3295.05 522.508 3295.05 617.717 2314 617.717Z" fill="#083A44" fill-rule="evenodd"/><path d="M3295.05 522.508 4276.09 522.508 4276.09 617.717 3295.05 617.717Z" fill="#083A44" fill-rule="evenodd"/><path d="M2314 617.717 3295.05 617.717 3295.05 725.476 2314 725.476Z" fill="#084442" fill-rule="evenodd"/><path d="M3295.05 617.717 4276.09 617.717 4276.09 725.476 3295.05 725.476Z" fill="#096E61" fill-rule="evenodd"/><path d="M2314 725.476 3295.05 725.476 3295.05 830.957 2314 830.957Z" fill="#084442" fill-rule="evenodd"/><path d="M3295.05 725.476 4276.09 725.476 4276.09 830.957 3295.05 830.957Z" fill="#096E61" fill-rule="evenodd"/><path d="M2314 830.957 3295.05 830.957 3295.05 920.751 2314 920.751Z" fill="#084442" fill-rule="evenodd"/><path d="M3295.05 830.957 4276.09 830.957 4276.09 920.751 3295.05 920.751Z" fill="#096E61" fill-rule="evenodd"/><path d="M2314 920.751 3295.05 920.751 3295.05 1028.51 2314 1028.51Z" fill="#084442" fill-rule="evenodd"/><path d="M3295.05 920.751 4276.09 920.751 4276.09 1028.51 3295.05 1028.51Z" fill="#096E61" fill-rule="evenodd"/><path d="M2314 1028.51 3295.05 1028.51 3295.05 1188.06 2314 1188.06Z" fill="#084442" fill-rule="evenodd"/><path d="M3295.05 1028.51 4276.09 1028.51 4276.09 1188.06 3295.05 1188.06Z" fill="#096E61" fill-rule="evenodd"/><path d="M2314 1188.06 3295.05 1188.06 3295.05 1283.27 2314 1283.27Z" fill="#084442" fill-rule="evenodd"/><path d="M3295.05 1188.06 4276.09 1188.06 4276.09 1283.27 3295.05 1283.27Z" fill="#096E61" fill-rule="evenodd"/><path d="M2314 1283.27 3295.05 1283.27 3295.05 1378.48 2314 1378.48Z" fill="#084442" fill-rule="evenodd"/><path d="M3295.05 1283.27 4276.09 1283.27 4276.09 1378.48 3295.05 1378.48Z" fill="#096E61" fill-rule="evenodd"/><path d="M2314 1378.48 3295.05 1378.48 3295.05 1468.27 2314 1468.27Z" fill="#084442" fill-rule="evenodd"/><path d="M3295.05 1378.48 4276.09 1378.48 4276.09 1468.27 3295.05 1468.27Z" fill="#096E61" fill-rule="evenodd"/><path d="M2314 1468.27 3295.05 1468.27 3295.05 1563.48 2314 1563.48Z" fill="#084442" fill-rule="evenodd"/><path d="M3295.05 1468.27 4276.09 1468.27 4276.09 1563.48 3295.05 1563.48Z" fill="#096E61" fill-rule="evenodd"/><path d="M2314 1563.48 3295.05 1563.48 3295.05 1653.28 2314 1653.28Z" fill="#084442" fill-rule="evenodd"/><path d="M3295.05 1563.48 4276.09 1563.48 4276.09 1653.28 3295.05 1653.28Z" fill="#096E61" fill-rule="evenodd"/><path d="M2314 1653.28 3295.05 1653.28 3295.05 1748.49 2314 1748.49Z" fill="#084442" fill-rule="evenodd"/><path d="M3295.05 1653.28 4276.09 1653.28 4276.09 1748.49 3295.05 1748.49Z" fill="#096E61" fill-rule="evenodd"/><path d="M2314 1748.49 3295.05 1748.49 3295.05 1838.28 2314 1838.28Z" fill="#084442" fill-rule="evenodd"/><path d="M3295.05 1748.49 4276.09 1748.49 4276.09 1838.28 3295.05 1838.28Z" fill="#096E61" fill-rule="evenodd"/><path d="M2314 1838.28 3295.05 1838.28 3295.05 1933.49 2314 1933.49Z" fill="#084442" fill-rule="evenodd"/><path d="M3295.05 1838.28 4276.09 1838.28 4276.09 1933.49 3295.05 1933.49Z" fill="#096E61" fill-rule="evenodd"/><path d="M2314 1933.49 3295.05 1933.49 3295.05 2041.25 2314 2041.25Z" fill="#084442" fill-rule="evenodd"/><path d="M3295.05 1933.49 4276.09 1933.49 4276.09 2041.25 3295.05 2041.25Z" fill="#096E61" fill-rule="evenodd"/><text fill="#FFFFFF" font-family="Comfortaa,Comfortaa_MSFontService,sans-serif" font-weight="400" font-size="50" transform="matrix(1 0 0 1 2674.18 588)">Hardware<tspan font-size="50" x="960.136" y="0">Description</tspan><tspan font-family="Comfortaa Light,Comfortaa Light_MSFontService,sans-serif" font-weight="300" font-size="50" x="1.14575" y="102">Processor</tspan><tspan font-family="Comfortaa Light,Comfortaa Light_MSFontService,sans-serif" font-weight="300" font-size="41" x="652.479" y="72">1.9 gigahertz (GHz) x86</tspan><tspan font-family="Comfortaa Light,Comfortaa Light_MSFontService,sans-serif" font-weight="300" font-size="41" x="1121.7" y="72">-</tspan><tspan font-family="Comfortaa Light,Comfortaa Light_MSFontService,sans-serif" font-weight="300" font-size="41" x="1149.77" y="72">or x64</tspan><tspan font-family="Comfortaa Light,Comfortaa Light_MSFontService,sans-serif" font-weight="300" font-size="41" x="1280.97" y="72">-</tspan></text><g clip-path="url(#clip1)"><text fill="#FFFFFF" font-family="Comfortaa Light,Comfortaa Light_MSFontService,sans-serif" font-weight="300" font-size="41" transform="matrix(1 0 0 1 3971.2 660)">bit dual core </text></g><text fill="#FFFFFF" font-family="Comfortaa Light,Comfortaa Light_MSFontService,sans-serif" font-weight="300" font-size="41" transform="matrix(1 0 0 1 3529.48 713)">processor (AMD or Intel)<tspan font-size="50" x="-831.516" y="84">Memory</tspan><tspan font-size="41" x="-171.875" y="80">2.00 GB minimum, 4.00 GB recommended</tspan><tspan font-size="50" x="-940.084" y="181">Hard Disk space</tspan><tspan font-size="41" x="15.7551" y="178">256 GB Storage Device</tspan><tspan font-size="50" x="-829.224" y="280">Monitor</tspan><tspan font-size="41" x="-190.495" y="250">19” LCD Monitor, resolution of 1280x1024 or </tspan><tspan font-size="41" x="186.484" y="303">better.</tspan><tspan font-size="50" x="-815.188" y="414">Others</tspan><tspan font-size="41" x="-121.172" y="384">Other required standard computer </tspan><tspan font-size="41" x="-197.37" y="437">peripherals, such as keyboard and mouse.</tspan><tspan font-size="50" x="-840.396" y="636">Software</tspan><tspan font-size="41" x="132.917" y="633">Description</tspan><tspan font-size="41" x="45.5469" y="725">Server Environment</tspan><tspan font-size="50" x="-961.854" y="821">Operating System</tspan><tspan font-size="41" x="-49.8438" y="818">Microsoft Windows 8 or later</tspan><tspan font-size="50" x="-968.443" y="914">Programming Tool</tspan><tspan font-size="41" x="10.0261" y="910">Visual Studio Code 1.64</tspan><tspan font-size="50" x="-943.521" y="1006">Database Server</tspan><tspan font-size="41" x="24.6355" y="1003">SQLite Database 2.2.0</tspan><tspan font-size="50" x="-870.188" y="1099">Web server</tspan><tspan font-size="41" x="110.573" y="1095">Apache 2.4.52</tspan><tspan font-size="41" x="52.1355" y="1188">Client Environment</tspan><tspan font-size="50" x="-940.084" y="1293">Internet browser</tspan><tspan font-size="41" x="-171.875" y="1263">Microsoft Edge, Google Chrome, Mozilla </tspan><tspan font-size="41" x="29.4937" y="1316">Firefox, Opera, Safari</tspan></text></g></svg>